<!-- <svg xmlns="http://www.w3.org/2000/svg" viewBox="0 0 512 512" fill="currentColor">!Font Awesome Free 6.6.0 by @fontawesome - https://fontawesome.com License - https://fontawesome.com/license/free Copyright 2024 Fonticons, Inc.<path d="M0 256C0 209.4 12.5 165.6 34.3 127.1L144.1 318.3C166 357.5 207.9 384 256 384C270.3 384 283.1 381.7 296.8 377.4L220.5 509.6C95.9 492.3 0 385.3 0 256zM365.1 321.6C377.4 302.4 384 279.1 384 256C384 217.8 367.2 183.5 340.7 160H493.4C505.4 189.6 512 222.1 512 256C512 397.4 397.4 511.1 256 512L365.1 321.6zM477.8 128H256C193.1 128 142.3 172.1 130.5 230.7L54.2 98.5C101 38.5 174 0 256 0C350.8 0 433.5 51.5 477.8 128V128zM168 256C168 207.4 207.4 168 256 168C304.6 168 344 207.4 344 256C344 304.6 304.6 344 256 344C207.4 344 168 304.6 168 256z"/></svg> -->
<!-- <svg xmlns="http://www.w3.org/2000/svg" viewBox="0 0 448 512">!Font Awesome Free 6.7.2 by @fontawesome - https://fontawesome.com License - https://fontawesome.com/license/free Copyright 2025 Fonticons, Inc.<path d="M448 80l0 48c0 44.2-100.3 80-224 80S0 172.2 0 128L0 80C0 35.8 100.3 0 224 0S448 35.8 448 80zM393.2 214.7c20.8-7.4 39.9-16.9 54.8-28.6L448 288c0 44.2-100.3 80-224 80S0 332.2 0 288L0 186.1c14.9 11.8 34 21.2 54.8 28.6C99.7 230.7 159.5 240 224 240s124.3-9.3 169.2-25.3zM0 346.1c14.9 11.8 34 21.2 54.8 28.6C99.7 390.7 159.5 400 224 400s124.3-9.3 169.2-25.3c20.8-7.4 39.9-16.9 54.8-28.6l0 85.9c0 44.2-100.3 80-224 80S0 476.2 0 432l0-85.9z"/></svg> -->
<svg xmlns="http://www.w3.org/2000/svg" viewBox="0 0 384 512"><!--!Font Awesome Free 6.7.2 by @fontawesome - https://fontawesome.com License - https://fontawesome.com/license/free Copyright 2025 Fonticons, Inc.--><path d="M277.7 312.9c9.8-6.7 23.4-12.5 23.4-12.5s-38.7 7-77.2 10.2c-47.1 3.9-97.7 4.7-123.1 1.3-60.1-8 33-30.1 33-30.1s-36.1-2.4-80.6 19c-52.5 25.4 130 37 224.5 12.1zm-85.4-32.1c-19-42.7-83.1-80.2 0-145.8C296 53.2 242.8 0 242.8 0c21.5 84.5-75.6 110.1-110.7 162.6-23.9 35.9 11.7 74.4 60.2 118.2zm114.6-176.2c.1 0-175.2 43.8-91.5 140.2 24.7 28.4-6.5 54-6.5 54s62.7-32.4 33.9-72.9c-26.9-37.8-47.5-56.6 64.1-121.3zm-6.1 270.5a12.2 12.2 0 0 1 -2 2.6c128.3-33.7 81.1-118.9 19.8-97.3a17.3 17.3 0 0 0 -8.2 6.3 70.5 70.5 0 0 1 11-3c31-6.5 75.5 41.5-20.6 91.4zM348 437.4s14.5 11.9-15.9 21.2c-57.9 17.5-240.8 22.8-291.6 .7-18.3-7.9 16-19 26.8-21.3 11.2-2.4 17.7-2 17.7-2-20.3-14.3-131.3 28.1-56.4 40.2C232.8 509.4 401 461.3 348 437.4zM124.4 396c-78.7 22 47.9 67.4 148.1 24.5a185.9 185.9 0 0 1 -28.2-13.8c-44.7 8.5-65.4 9.1-106 4.5-33.5-3.8-13.9-15.2-13.9-15.2zm179.8 97.2c-78.7 14.8-175.8 13.1-233.3 3.6 0-.1 11.8 9.7 72.4 13.6 92.2 5.9 233.8-3.3 237.1-46.9 0 0-6.4 16.5-76.2 29.7zM260.6 353c-59.2 11.4-93.5 11.1-136.8 6.6-33.5-3.5-11.6-19.7-11.6-19.7-86.8 28.8 48.2 61.4 169.5 25.9a60.4 60.4 0 0 1 -21.1-12.8z"/></svg>