<!-- <svg xmlns="http://www.w3.org/2000/svg" viewBox="0 0 512 512" fill="currentColor">!Font Awesome Free 6.6.0 by @fontawesome - https://fontawesome.com License - https://fontawesome.com/license/free Copyright 2024 Fonticons, Inc.<path d="M418.2 177.2c-5.4-1.8-10.8-3.5-16.2-5.1 .9-3.7 1.7-7.4 2.5-11.1 12.3-59.6 4.2-107.5-23.1-123.3-26.3-15.1-69.2 .6-112.6 38.4-4.3 3.7-8.5 7.6-12.5 11.5-2.7-2.6-5.5-5.2-8.3-7.7-45.5-40.4-91.1-57.4-118.4-41.5-26.2 15.2-34 60.3-23 116.7 1.1 5.6 2.3 11.1 3.7 16.7-6.4 1.8-12.7 3.8-18.6 5.9C38.3 196.2 0 225.4 0 255.6c0 31.2 40.8 62.5 96.3 81.5 4.5 1.5 9 3 13.6 4.3-1.5 6-2.8 11.9-4 18-10.5 55.5-2.3 99.5 23.9 114.6 27 15.6 72.4-.4 116.6-39.1 3.5-3.1 7-6.3 10.5-9.7 4.4 4.3 9 8.4 13.6 12.4 42.8 36.8 85.1 51.7 111.2 36.6 27-15.6 35.8-62.9 24.4-120.5-.9-4.4-1.9-8.9-3-13.5 3.2-.9 6.3-1.9 9.4-2.9 57.7-19.1 99.5-50 99.5-81.7 0-30.3-39.4-59.7-93.8-78.4zM282.9 92.3c37.2-32.4 71.9-45.1 87.7-36 16.9 9.7 23.4 48.9 12.8 100.4-.7 3.4-1.4 6.7-2.3 10-22.2-5-44.7-8.6-67.3-10.6-13-18.6-27.2-36.4-42.6-53.1 3.9-3.7 7.7-7.2 11.7-10.7zM167.2 307.5c5.1 8.7 10.3 17.4 15.8 25.9-15.6-1.7-31.1-4.2-46.4-7.5 4.4-14.4 9.9-29.3 16.3-44.5 4.6 8.8 9.3 17.5 14.3 26.1zm-30.3-120.3c14.4-3.2 29.7-5.8 45.6-7.8-5.3 8.3-10.5 16.8-15.4 25.4-4.9 8.5-9.7 17.2-14.2 26-6.3-14.9-11.6-29.5-16-43.6zm27.4 68.9c6.6-13.8 13.8-27.3 21.4-40.6s15.8-26.2 24.4-38.9c15-1.1 30.3-1.7 45.9-1.7s31 .6 45.9 1.7c8.5 12.6 16.6 25.5 24.3 38.7s14.9 26.7 21.7 40.4c-6.7 13.8-13.9 27.4-21.6 40.8-7.6 13.3-15.7 26.2-24.2 39-14.9 1.1-30.4 1.6-46.1 1.6s-30.9-.5-45.6-1.4c-8.7-12.7-16.9-25.7-24.6-39s-14.8-26.8-21.5-40.6zm180.6 51.2c5.1-8.8 9.9-17.7 14.6-26.7 6.4 14.5 12 29.2 16.9 44.3-15.5 3.5-31.2 6.2-47 8 5.4-8.4 10.5-17 15.5-25.6zm14.4-76.5c-4.7-8.8-9.5-17.6-14.5-26.2-4.9-8.5-10-16.9-15.3-25.2 16.1 2 31.5 4.7 45.9 8-4.6 14.8-10 29.2-16.1 43.4zM256.2 118.3c10.5 11.4 20.4 23.4 29.6 35.8-19.8-.9-39.7-.9-59.5 0 9.8-12.9 19.9-24.9 29.9-35.8zM140.2 57c16.8-9.8 54.1 4.2 93.4 39 2.5 2.2 5 4.6 7.6 7-15.5 16.7-29.8 34.5-42.9 53.1-22.6 2-45 5.5-67.2 10.4-1.3-5.1-2.4-10.3-3.5-15.5-9.4-48.4-3.2-84.9 12.6-94zm-24.5 263.6c-4.2-1.2-8.3-2.5-12.4-3.9-21.3-6.7-45.5-17.3-63-31.2-10.1-7-16.9-17.8-18.8-29.9 0-18.3 31.6-41.7 77.2-57.6 5.7-2 11.5-3.8 17.3-5.5 6.8 21.7 15 43 24.5 63.6-9.6 20.9-17.9 42.5-24.8 64.5zm116.6 98c-16.5 15.1-35.6 27.1-56.4 35.3-11.1 5.3-23.9 5.8-35.3 1.3-15.9-9.2-22.5-44.5-13.5-92 1.1-5.6 2.3-11.2 3.7-16.7 22.4 4.8 45 8.1 67.9 9.8 13.2 18.7 27.7 36.6 43.2 53.4-3.2 3.1-6.4 6.1-9.6 8.9zm24.5-24.3c-10.2-11-20.4-23.2-30.3-36.3 9.6 .4 19.5 .6 29.5 .6 10.3 0 20.4-.2 30.4-.7-9.2 12.7-19.1 24.8-29.6 36.4zm130.7 30c-.9 12.2-6.9 23.6-16.5 31.3-15.9 9.2-49.8-2.8-86.4-34.2-4.2-3.6-8.4-7.5-12.7-11.5 15.3-16.9 29.4-34.8 42.2-53.6 22.9-1.9 45.7-5.4 68.2-10.5 1 4.1 1.9 8.2 2.7 12.2 4.9 21.6 5.7 44.1 2.5 66.3zm18.2-107.5c-2.8 .9-5.6 1.8-8.5 2.6-7-21.8-15.6-43.1-25.5-63.8 9.6-20.4 17.7-41.4 24.5-62.9 5.2 1.5 10.2 3.1 15 4.7 46.6 16 79.3 39.8 79.3 58 0 19.6-34.9 44.9-84.8 61.4zm-149.7-15c25.3 0 45.8-20.5 45.8-45.8s-20.5-45.8-45.8-45.8c-25.3 0-45.8 20.5-45.8 45.8s20.5 45.8 45.8 45.8z"/></svg> -->
<svg xmlns="http://www.w3.org/2000/svg" viewBox="0 0 640 512"><!--!Font Awesome Free 6.7.2 by @fontawesome - https://fontawesome.com License - https://fontawesome.com/license/free Copyright 2025 Fonticons, Inc.--><path d="M180.4 203c-.7 22.7 10.6 32.7 10.9 39.1a8.2 8.2 0 0 1 -4.1 6.3l-12.8 9a10.7 10.7 0 0 1 -5.6 1.9c-.4 0-8.2 1.8-20.5-25.6a78.6 78.6 0 0 1 -62.6 29.5c-16.3 .9-60.4-9.2-58.1-56.2-1.6-38.3 34.1-62.1 70.9-60.1 7.1 0 21.6 .4 47 6.3v-15.6c2.7-26.5-14.7-47-44.8-43.9-2.4 0-19.4-.5-45.8 10.1-7.4 3.4-8.3 2.8-10.8 2.8-7.4 0-4.4-21.5-2.9-24.2 5.2-6.4 35.9-18.4 65.9-18.2a76.9 76.9 0 0 1 55.7 17.3 70.3 70.3 0 0 1 17.7 52.4l0 69.3zM94 235.4c32.4-.5 46.2-20 49.3-30.5 2.5-10.1 2.1-16.4 2.1-27.4-9.7-2.3-23.6-4.9-39.6-4.9-15.2-1.1-42.8 5.6-41.7 32.3-1.2 16.8 11.1 31.4 30 30.5zm170.9 23.1c-7.9 .7-11.5-4.9-12.7-10.4l-49.8-164.7c-1-2.8-1.6-5.7-1.9-8.6a4.6 4.6 0 0 1 3.9-5.3c.2 0-2.1 0 22.3 0 8.8-.9 11.6 6 12.6 10.4l35.7 140.8 33.2-140.8c.5-3.2 2.9-11.1 12.8-10.2h17.2c2.2-.2 11.1-.5 12.7 10.4l33.4 142.6L421 80.1c.5-2.2 2.7-11.4 12.7-10.4h19.7c.9-.1 6.2-.8 5.3 8.6-.4 1.9 3.4-10.7-52.8 169.9-1.2 5.5-4.8 11.1-12.7 10.4h-18.7c-10.9 1.2-12.5-9.7-12.7-10.8L328.7 110.7l-32.8 137c-.2 1.1-1.7 11.9-12.7 10.8h-18.3zm273.5 5.6c-5.9 0-33.9-.3-57.4-12.3a12.8 12.8 0 0 1 -7.8-11.9v-10.8c0-8.5 6.2-6.9 8.8-5.9 10 4.1 16.5 7.1 28.8 9.6 36.7 7.5 52.8-2.3 56.7-4.5 13.2-7.8 14.2-25.7 5.3-35-10.5-8.8-15.5-9.1-53.1-21-4.6-1.3-43.7-13.6-43.8-52.4-.6-28.2 25.1-56.2 69.5-56 12.7 0 46.4 4.1 55.6 15.6 1.4 2.1 2 4.6 1.9 7v10.1c0 4.4-1.6 6.7-4.9 6.7-7.7-.9-21.4-11.2-49.2-10.8-6.9-.4-39.9 .9-38.4 25-.4 19 26.6 26.1 29.7 26.9 36.5 11 48.7 12.8 63.1 29.6 17.1 22.3 7.9 48.3 4.4 55.4-19.1 37.5-68.4 34.4-69.3 34.4zm40.2 104.9c-70 51.7-171.7 79.3-258.5 79.3A469.1 469.1 0 0 1 2.8 327.5c-6.5-5.9-.8-14 7.2-9.5a637.4 637.4 0 0 0 316.9 84.1 630.2 630.2 0 0 0 241.6-49.6c11.8-5 21.8 7.8 10.1 16.4zm29.2-33.3c-9-11.5-59.3-5.4-81.8-2.7-6.8 .8-7.9-5.1-1.8-9.5 40.1-28.2 105.9-20.1 113.4-10.6 7.6 9.5-2.1 75.4-39.6 106.9-5.8 4.9-11.3 2.3-8.7-4.1 8.4-21.3 27.4-68.5 18.4-80z"/></svg>